<?xml version="1.0" standalone="no"?>
<!DOCTYPE svg PUBLIC "-//W3C//DTD SVG 20010904//EN"
 "http://www.w3.org/TR/2001/REC-SVG-20010904/DTD/svg10.dtd">
<svg version="1.0" xmlns="http://www.w3.org/2000/svg"
 width="273.000000pt" height="273.000000pt" viewBox="0 0 273.000000 273.000000"
 preserveAspectRatio="xMidYMid meet">
<metadata>
Created by potrace 1.11, written by Peter Selinger 2001-2013
</metadata>
<g transform="translate(0.000000,273.000000) scale(0.100000,-0.100000)"
fill="#000000" stroke="none">
<path d="M1225 2723 c-76 -8 -60 17 -325 -517 -137 -277 -250 -509 -250 -516
0 -7 6 -10 14 -7 14 5 136 37 159 41 7 1 21 5 32 9 11 3 31 8 45 11 14 3 40 9
58 15 17 5 32 8 32 5 0 -3 8 0 18 5 9 5 31 12 47 15 17 3 48 10 70 16 22 6 51
13 65 16 14 2 32 7 40 10 8 3 24 8 36 10 11 2 101 25 200 50 98 25 188 48 199
50 51 9 105 27 105 36 0 5 -22 43 -50 85 -27 42 -50 78 -50 80 0 2 -5 9 -11
16 -5 7 -94 138 -197 292 -103 154 -191 280 -197 281 -5 0 -23 -1 -40 -3z"/>
<path d="M1368 2724 c-4 -3 84 -141 195 -307 111 -166 206 -311 212 -321 27
-51 30 -20 28 261 -1 159 -2 291 -2 294 -2 12 -96 37 -221 59 -72 13 -205 22
-212 14z"/>
<path d="M1059 2696 c-2 -3 -16 -7 -29 -9 -86 -16 -317 -115 -391 -168 l-29
-20 0 -362 0 -362 156 315 c86 173 190 381 230 463 66 132 78 157 63 143z"/>
<path d="M1870 2338 l0 -292 25 35 c44 60 54 74 70 94 9 11 47 63 86 115 39
52 82 108 95 124 13 17 24 34 24 39 0 12 -42 46 -57 47 -7 0 -13 4 -13 8 0 9
-153 92 -202 111 l-28 11 0 -292z"/>
<path d="M510 2428 c-41 -33 -122 -111 -167 -160 -45 -50 -44 -36 -13 -158 5
-19 9 -35 9 -35 0 0 2 -7 5 -15 8 -25 18 -74 19 -97 1 -13 6 -23 11 -23 4 0 6
-7 3 -15 -4 -8 -2 -17 4 -21 6 -3 8 -12 5 -19 -2 -7 -2 -16 2 -19 3 -4 7 -12
8 -19 5 -21 7 -29 64 -257 12 -47 23 -93 25 -103 2 -10 7 -27 10 -37 3 -10 8
-29 11 -42 12 -55 14 -65 23 -93 11 -34 10 -86 10 644 1 267 0 486 -2 487 -1
1 -13 -7 -27 -18z"/>
<path d="M2210 2390 c-8 -12 -84 -113 -167 -225 -84 -112 -153 -208 -153 -212
1 -6 649 -443 810 -546 l28 -18 -4 63 c-20 317 -161 631 -388 864 -51 52 -96
94 -102 94 -5 0 -16 -9 -24 -20z"/>
<path d="M196 2068 c-83 -135 -152 -322 -181 -498 -24 -145 -5 -503 29 -537
10 -10 300 -10 313 0 7 5 13 6 13 1 0 -5 28 -8 63 -8 105 3 100 2 92 27 -3 12
-10 38 -15 57 -5 19 -15 62 -24 96 -8 34 -17 72 -20 85 -2 13 -7 31 -10 39 -3
8 -8 26 -10 40 -3 14 -10 43 -16 65 -6 22 -13 49 -15 60 -2 11 -11 47 -20 80
-19 67 -31 115 -40 160 -4 17 -8 35 -10 40 -1 6 -3 13 -4 17 -1 4 -7 22 -12
40 -6 18 -13 49 -16 68 -3 19 -9 43 -15 53 -5 9 -6 22 -3 27 3 6 2 10 -3 10
-5 0 -9 6 -9 13 -1 6 -6 35 -13 62 -6 28 -11 56 -12 63 -3 25 -18 10 -62 -60z"/>
<path d="M1710 1879 c-123 -32 -388 -100 -410 -104 -8 -2 -44 -11 -80 -20 -36
-9 -76 -19 -89 -22 -14 -2 -28 -6 -31 -8 -4 -2 -20 -7 -36 -9 -16 -3 -59 -14
-97 -25 -37 -11 -70 -20 -72 -20 -3 -1 -6 -1 -7 -2 -14 -4 -39 -9 -68 -14 -41
-8 -64 -25 -35 -26 11 0 29 -2 40 -4 11 -2 40 -6 65 -9 25 -3 59 -8 75 -11 17
-3 48 -7 70 -9 22 -2 51 -6 65 -9 14 -4 45 -9 70 -12 25 -3 65 -9 90 -13 25
-3 57 -6 73 -7 15 0 27 -2 27 -5 0 -3 8 -6 18 -7 25 -1 117 -12 117 -13 0 -3
40 -8 102 -14 29 -2 56 -7 60 -9 4 -3 31 -8 58 -11 106 -13 131 -16 150 -20
11 -3 45 -8 75 -11 30 -3 69 -8 85 -11 33 -6 80 -13 135 -19 19 -2 46 -6 60
-9 14 -2 46 -7 71 -10 25 -4 57 -9 70 -11 34 -5 165 -24 224 -31 48 -6 34 5
-348 261 -219 146 -404 268 -410 269 -7 2 -59 -9 -117 -25z"/>
<path d="M750 1566 c0 -3 57 -39 128 -81 108 -65 268 -161 322 -195 144 -88
283 -170 290 -170 5 0 10 -3 12 -8 2 -4 148 -94 325 -200 l322 -193 101 103
c56 57 181 183 277 280 97 98 174 180 172 183 -3 2 -25 7 -50 10 -24 3 -53 7
-64 9 -11 2 -45 7 -75 10 -30 4 -77 11 -105 16 -27 5 -72 12 -100 15 -27 3
-61 7 -75 10 -14 2 -43 7 -65 10 -22 3 -51 8 -65 10 -14 2 -47 7 -75 10 -27 3
-63 8 -80 10 -73 12 -91 15 -134 21 -25 3 -57 8 -71 10 -14 2 -45 7 -70 10
-25 3 -58 7 -75 10 -16 3 -46 7 -65 10 -19 2 -46 6 -60 9 -22 4 -51 8 -135 20
-11 1 -47 6 -80 10 -33 4 -69 9 -80 12 -11 2 -40 6 -65 9 -25 2 -56 7 -70 10
-14 2 -45 7 -70 9 -25 3 -53 8 -64 11 -10 3 -40 7 -66 9 -27 2 -58 6 -69 10
-12 3 -21 4 -21 1z"/>
<path d="M610 892 l0 -668 63 -37 c73 -42 67 -41 104 -25 15 6 30 12 33 12 23
5 356 143 361 149 3 4 10 7 15 6 5 -2 27 5 49 15 22 9 114 46 205 82 91 36
179 71 195 79 17 7 111 45 210 85 99 40 190 78 203 84 21 11 12 18 -143 111
-91 55 -173 105 -183 110 -9 6 -52 31 -95 58 -43 26 -82 47 -87 47 -6 0 -10 5
-10 10 0 6 -7 10 -15 10 -8 0 -15 3 -15 8 0 4 -15 13 -32 21 -18 8 -35 17 -38
21 -9 11 -110 70 -120 70 -6 0 -10 5 -10 10 0 6 -6 10 -14 10 -7 0 -19 7 -26
15 -7 8 -16 13 -20 10 -5 -3 -10 -1 -12 3 -1 5 -103 69 -226 143 -123 74 -240
144 -260 157 -20 12 -44 25 -52 29 -8 3 -26 15 -39 25 -13 10 -28 18 -32 18
-5 0 -9 -299 -9 -668z"/>
<path d="M2575 1055 c-123 -125 -151 -156 -126 -141 4 3 39 8 77 10 38 3 69 6
69 7 0 0 13 2 30 3 21 1 33 8 42 26 13 29 54 222 48 228 -2 3 -65 -57 -140
-133z"/>
<path d="M69 933 c17 -59 73 -182 117 -257 l47 -80 24 30 c42 51 243 323 243
329 0 3 -99 5 -219 5 l-220 0 8 -27z"/>
<path d="M405 710 l-127 -170 18 -28 c23 -35 170 -181 211 -210 l32 -23 3 296
c2 164 0 299 -3 301 -4 2 -64 -73 -134 -166z"/>
<path d="M2605 864 c-5 -1 -37 -5 -70 -8 -189 -16 -166 -8 -239 -82 -70 -71
-77 -84 -48 -85 22 -1 43 -5 154 -29 51 -11 100 -20 109 -20 21 0 128 205 114
219 -6 5 -14 7 -20 5z"/>
<path d="M2225 610 c7 -23 94 -201 102 -210 4 -5 29 21 102 110 l54 65 -39 7
c-21 4 -54 10 -73 13 -18 3 -36 7 -40 9 -3 3 -26 7 -51 11 -25 4 -49 9 -53 12
-5 3 -6 -5 -2 -17z"/>
<path d="M2025 592 c-6 -5 -48 -24 -95 -42 -47 -18 -104 -41 -127 -52 -23 -10
-45 -18 -48 -18 -3 0 -25 -9 -48 -19 -24 -11 -55 -23 -70 -26 -15 -4 -27 -11
-27 -17 0 -5 -4 -7 -8 -4 -5 3 -19 -1 -33 -7 -13 -7 -76 -33 -139 -57 -63 -24
-118 -49 -122 -55 -4 -5 -8 -7 -8 -3 0 4 -25 -3 -56 -17 -31 -14 -63 -25 -70
-25 -8 0 -14 -5 -14 -12 0 -6 -3 -9 -6 -5 -4 3 -19 0 -35 -9 -16 -8 -29 -12
-29 -9 0 4 -10 -1 -22 -9 -12 -9 -30 -16 -39 -16 -10 0 -19 -3 -21 -7 -3 -7
-59 -31 -135 -57 -18 -6 -33 -14 -33 -17 0 -8 122 -53 190 -70 199 -51 479
-50 672 2 33 9 63 43 98 114 3 6 62 105 133 222 70 116 127 214 127 217 0 9
-25 7 -35 -2z"/>
<path d="M1992 345 c-83 -140 -152 -257 -152 -260 0 -9 155 66 233 113 44 26
107 70 142 99 l62 51 -64 126 c-35 69 -65 126 -66 126 -1 0 -71 -115 -155
-255z"/>
</g>
</svg>
